<svg width="14" height="10" viewBox="0 0 14 10" fill="none" xmlns="http://www.w3.org/2000/svg">
<path d="M5.486 9.22989C5.35474 9.23016 5.22471 9.2045 5.10339 9.1544C4.98206 9.10429 4.87182 9.03071 4.779 8.93789L0.537003 4.69489C0.44143 4.60271 0.365172 4.49242 0.312678 4.37046C0.260185 4.24849 0.232507 4.11729 0.231261 3.98451C0.230014 3.85174 0.255223 3.72004 0.305417 3.59711C0.355611 3.47418 0.429784 3.36248 0.52361 3.26852C0.617435 3.17456 0.729033 3.10023 0.851893 3.04986C0.974752 2.99949 1.10641 2.9741 1.23919 2.97516C1.37197 2.97622 1.50321 3.00371 1.62525 3.05603C1.74729 3.10835 1.85769 3.18445 1.95 3.27989L5.485 6.81489L11.85 0.451894C12.0375 0.264253 12.2919 0.158785 12.5571 0.158691C12.8224 0.158598 13.0769 0.263886 13.2645 0.451394C13.4521 0.638902 13.5576 0.89327 13.5577 1.15854C13.5578 1.42381 13.4525 1.67825 13.265 1.86589L6.193 8.93789C6.10018 9.03071 5.98995 9.10429 5.86862 9.1544C5.7473 9.2045 5.61727 9.23016 5.486 9.22989Z" fill="white"/>
</svg>
